<?xml version="1.0" encoding="UTF-8"?>
<svg version="1.1" xmlns="http://www.w3.org/2000/svg" width="798" height="313">
<path d="M0 0 C28.05 0 56.1 0 85 0 C84.67 1.65 84.34 3.3 84 5 C83.28972656 5.18175781 82.57945313 5.36351563 81.84765625 5.55078125 C80.92855469 5.80214844 80.00945312 6.05351563 79.0625 6.3125 C78.14597656 6.55613281 77.22945313 6.79976563 76.28515625 7.05078125 C75.53105469 7.36402344 74.77695313 7.67726563 74 8 C70.32401541 19.02795376 74.85776903 31.51125574 77.4375 42.375 C77.89159131 44.32686139 78.34478593 46.2789316 78.79711914 48.23120117 C82.10123285 62.43252554 85.51966139 76.60869601 89.04272461 90.75732422 C91.00832916 98.68193366 92.78701417 106.60798521 94.32177734 114.62792969 C95.36180535 119.79886805 96.66076879 124.89952368 98 130 C100.94232087 122.05573365 102.64441089 113.89732936 104.42333984 105.63720703 C105.67940719 99.89290584 107.01389203 94.16584698 108.33740234 88.43676758 C109.36090865 83.96821911 110.2531517 79.52394177 111 75 C111.60672586 72.17810202 112.26964369 69.37047577 112.9375 66.5625 C113.19176758 65.47485352 113.19176758 65.47485352 113.45117188 64.36523438 C114.25418256 60.96694202 115.10935383 57.64730592 116.14453125 54.30859375 C118.24285386 46.19316337 115.77312959 37.79788008 112.9375 30.125 C112.13954812 27.46516039 111.82841708 25.41707339 111.625 22.6875 C111.08857851 17.63832627 110.09890215 13.11859232 107 9 C103.82888372 6.86435026 100.56792704 5.35499519 97 4 C97 2.68 97 1.36 97 0 C120.1 0 143.2 0 167 0 C166.67 1.65 166.34 3.3 166 5 C163.78515625 6.29296875 163.78515625 6.29296875 161.0625 7.1875 C157.15197388 8.45866663 157.15197388 8.45866663 154 11 C153.16996015 16.96987192 154.37332358 22.79009422 155.8125 28.5625 C157.16421944 34.14294483 158.33398621 39.72483477 159.36328125 45.375 C160.93086604 53.93197916 162.84176591 62.3995053 164.78781128 70.87716675 C168.08015582 85.23285667 171.22875292 99.59746899 174.02734375 114.05859375 C174.93109471 118.72690977 175.94804715 123.36291636 177 128 C177.33 128 177.66 128 178 128 C178.15855469 127.16082031 178.31710938 126.32164062 178.48046875 125.45703125 C179.92148293 118.02904105 181.5262199 110.66519602 183.3125 103.3125 C185.37907445 94.80074701 187.25180629 86.25716492 189.0625 77.6875 C191.39016746 66.69196498 193.94859219 55.80729962 196.8046875 44.9375 C198.93207197 36.69114371 200.51664448 28.38185225 202 20 C202.25523437 18.95585938 202.51046875 17.91171875 202.7734375 16.8359375 C203.0668056 13.16377817 202.37050157 11.79138654 200 9 C197.3397325 7.69669332 197.3397325 7.69669332 194.375 6.9375 C191.3984375 6.08984375 191.3984375 6.08984375 189 5 C188.1015625 2.94140625 188.1015625 2.94140625 188 1 C189 0 189 0 190.86659241 -0.12025452 C192.08903908 -0.1169236 192.08903908 -0.1169236 193.33618164 -0.11352539 C194.2570607 -0.11344986 195.17793976 -0.11337433 196.12672424 -0.11329651 C197.12775681 -0.10813522 198.12878937 -0.10297394 199.16015625 -0.09765625 C200.68956093 -0.09553383 200.68956093 -0.09553383 202.24986267 -0.09336853 C205.52077107 -0.08775097 208.79161213 -0.0751955 212.0625 -0.0625 C214.27408756 -0.05748726 216.48567618 -0.05292396 218.69726562 -0.04882812 C224.13153357 -0.03777584 229.56576197 -0.02102063 235 0 C235 1.32 235 2.64 235 4 C234.16855469 4.39832031 234.16855469 4.39832031 233.3203125 4.8046875 C232.59585938 5.15789062 231.87140625 5.51109375 231.125 5.875 C230.40570313 6.22304687 229.68640625 6.57109375 228.9453125 6.9296875 C226.39638285 8.33211064 225.19996713 9.40764455 224.26164246 12.18721008 C224.03245621 13.09649765 223.80326996 14.00578522 223.56713867 14.94262695 C223.17113716 16.49244011 223.17113716 16.49244011 222.76713562 18.07356262 C222.34679802 19.76384834 222.34679802 19.76384834 221.91796875 21.48828125 C221.62191238 22.65642868 221.32585602 23.82457611 221.02082825 25.02812195 C220.06984418 28.7879648 219.12873527 32.55020622 218.1875 36.3125 C217.56506125 38.77554438 216.94202096 41.23843684 216.31835938 43.70117188 C213.11832549 56.3698296 209.99692499 69.05430215 207.00585938 81.77392578 C206.15445208 85.3826148 205.2490334 88.97483333 204.3125 92.5625 C203.38283641 96.21951922 202.68364255 99.8313828 202.125 103.5625 C201.3488545 108.4429029 200.22758834 113.1719422 198.9375 117.9375 C196.47318879 127.10582904 194.1037242 136.29670235 191.81082153 145.50930786 C191.39914836 147.15428736 190.98279247 148.79810288 190.56149292 150.44064331 C188.24929585 159.46768576 186.43761821 167.59899104 187 177 C189.97 177.99 192.94 178.98 196 180 C196 180.99 196 181.98 196 183 C176.2 183 156.4 183 136 183 C136 182.01 136 181.02 136 180 C140.455 178.02 140.455 178.02 145 176 C145.12345946 171.15421634 144.73524993 166.80532546 143.75 162.0625 C143.61722656 161.42207764 143.48445312 160.78165527 143.34765625 160.12182617 C141.55739601 151.66017755 139.40051348 143.2804049 137.18359375 134.921875 C135.6921054 129.20580445 134.53685774 123.50889671 133.5625 117.6875 C131.28865001 103.35512272 131.28865001 103.35512272 126 90 C125.81824219 91.08667969 125.81824219 91.08667969 125.6328125 92.1953125 C125.46523437 93.16210938 125.29765625 94.12890625 125.125 95.125 C124.96257812 96.07632813 124.80015625 97.02765625 124.6328125 98.0078125 C124 101 124 101 123.05053711 103.81054688 C122.04351046 106.8679013 121.26658439 109.88473719 120.55859375 113.0234375 C120.17356689 114.72838379 120.17356689 114.72838379 119.78076172 116.46777344 C118.2469622 123.40680139 116.75699365 130.3546767 115.28076172 137.30615234 C114.11956056 142.77254113 112.95498002 148.23664864 111.72265625 153.6875 C109.96573746 161.53828369 108.46881726 168.89946314 109 177 C110.3921875 177.433125 110.3921875 177.433125 111.8125 177.875 C115 179 115 179 118 181 C118 181.66 118 182.32 118 183 C98.2 183 78.4 183 58 183 C57.67 182.01 57.34 181.02 57 180 C61.95 178.02 61.95 178.02 67 176 C67.39744157 167.85244783 66.55948241 161.44953306 64.13671875 153.6796875 C62.35833448 147.92285596 60.98301148 142.06657239 59.54736328 136.21728516 C58.96428287 133.85531537 58.37188595 131.49582871 57.77734375 129.13671875 C55.5952786 120.47303118 53.46895596 111.80165896 51.45361328 103.09765625 C50.08619193 97.2448152 48.53859228 91.45088377 46.9296875 85.66015625 C46.22728413 82.8948119 45.6287559 80.17752623 45.09130859 77.38012695 C43.52850121 69.49752693 41.48926891 61.73859731 39.47900391 53.96044922 C38.99430654 52.07522643 38.51542917 50.18849741 38.04248047 48.30029297 C33.5247711 27.6111881 33.5247711 27.6111881 20.84375 11.5234375 C15.15973836 8.7382718 9.66706981 6.97774791 3.46875 5.67578125 C1 5 1 5 -1 3 C-0.67 2.01 -0.34 1.02 0 0 Z " fill="#FEFEFE" transform="translate(9,61)"/>
<path d="M0 0 C7.84444765 8.02090762 9.38472667 15.89463895 9.29321289 26.71875 C9.07079073 36.50958201 5.80404927 42.87194838 -1 50 C-3.4796753 52.07256443 -5.88733565 54.04373817 -9 55 C-11.0546875 54.62890625 -11.0546875 54.62890625 -13 53 C-14.26947544 50.34168344 -15.09226929 47.56743569 -15.9375 44.75 C-17.94843757 38.06979144 -19.9610942 32.7162232 -26.00390625 28.65234375 C-29.98304771 27.35191983 -33.88537563 27.37313664 -38 28 C-41.86906707 30.49877248 -43.14484596 32.80653573 -44.10882568 37.16403198 C-45.03018102 41.63028885 -45.28424604 45.88916828 -45.25878906 50.43798828 C-45.2622937 51.22785126 -45.26579834 52.01771423 -45.26940918 52.83151245 C-45.27812584 55.41120506 -45.27241446 57.9906177 -45.265625 60.5703125 C-45.26697428 62.37914075 -45.268917 64.18796864 -45.27142334 65.99679565 C-45.27436073 69.77410358 -45.27012069 73.55131646 -45.26074219 77.32861328 C-45.24933208 82.15814311 -45.25592578 86.98745098 -45.26788712 91.81697273 C-45.27512922 95.54712585 -45.27280728 99.27722671 -45.26763153 103.00738144 C-45.26630239 104.78789166 -45.26791685 106.5684067 -45.27259064 108.34891129 C-45.27769646 110.83966829 -45.26988974 113.33007008 -45.25878906 115.82080078 C-45.26486176 116.91198212 -45.26486176 116.91198212 -45.27105713 118.02520752 C-45.22251006 123.93537948 -44.54143358 129.0052036 -40.875 133.75 C-37.34505171 136.51256823 -34.2540125 137.63006377 -30 139 C-30 140.32 -30 141.64 -30 143 C-70.92 143 -111.84 143 -154 143 C-154.66 139.7 -155.32 136.4 -156 133 C-156.680625 133.59167969 -157.36125 134.18335938 -158.0625 134.79296875 C-167.52008723 142.50241154 -178.97965 148.18494545 -191.5703125 147.421875 C-203.23414711 145.39664327 -212.5010203 140.94063558 -219.46875 131.3125 C-228.10166769 118.27503247 -229.33837772 104.45916879 -226.5 89.3359375 C-223.82084365 80.12633755 -217.75317523 69.13315811 -209.69921875 63.82421875 C-208.37108798 63.09513468 -207.03308023 62.38385392 -205.6875 61.6875 C-204.95909912 61.30577637 -204.23069824 60.92405273 -203.48022461 60.53076172 C-191.35251134 54.41834378 -178.17492719 50.42574575 -165.14648438 46.70581055 C-161.89638357 45.63710702 -159.5425192 44.281748 -157 42 C-155.31153282 34.75927264 -154.8148113 26.43704722 -157.25 19.375 C-160.17851048 15.40059292 -162.32269086 13.92875108 -167.1875 13.125 C-172.26240253 12.67820626 -176.36019532 14.05852145 -181 16 C-182.37185033 22.30752923 -181.91330033 26.22889831 -178.9921875 31.98046875 C-177.86169639 34.28150774 -177.32755608 36.46144042 -177 39 C-181.38523896 41.19261948 -187.49569226 38.38745256 -192 37 C-199.07303007 34.53013518 -206.04237288 31.77574884 -213 29 C-213.2734375 22.390625 -213.2734375 22.390625 -210.8125 18.875 C-209.88933994 17.90284541 -208.95191007 16.94402131 -208 16 C-207.236875 15.154375 -206.47375 14.30875 -205.6875 13.4375 C-197.48717949 6 -197.48717949 6 -193 6 C-193 5.34 -193 4.68 -193 4 C-176.21872823 -3.92196974 -154.10474126 -6.34546515 -136 -1 C-132.53785407 0.46475405 -129.25137871 2.11535128 -126 4 C-126 4.66 -126 5.32 -126 6 C-125.40445313 6.06703125 -124.80890625 6.1340625 -124.1953125 6.203125 C-121.1250449 7.31759936 -120.46260274 8.94052499 -118.875 11.75 C-118.37742187 12.61109375 -117.87984375 13.4721875 -117.3671875 14.359375 C-113.44721339 21.930525 -112.85253773 28.87257498 -112.84228516 37.2590332 C-112.83720444 38.17204193 -112.83212372 39.08505066 -112.82688904 40.02572632 C-112.81621946 42.00144314 -112.80758602 43.97717178 -112.80076981 45.95290565 C-112.78893174 49.08538135 -112.76946648 52.21772221 -112.74765015 55.35014343 C-112.68619777 64.25413499 -112.63202577 73.15811124 -112.59863281 82.06225586 C-112.57763395 87.51578287 -112.54229154 92.96906096 -112.49787521 98.4224453 C-112.48375984 100.49433645 -112.47500291 102.5662716 -112.47182083 104.63820839 C-112.46688647 107.54332996 -112.44366419 110.44779594 -112.41650391 113.3527832 C-112.41951004 114.19931961 -112.42251617 115.04585602 -112.4256134 115.91804504 C-112.34713851 121.5990149 -111.51855935 126.84732556 -109 132 C-105.51355748 134.82235823 -102.72852432 135.21481206 -98.375 135 C-94.97834926 134.47963768 -94.12540318 134.11599794 -91.5 131.6875 C-88.73463083 126.73288024 -88.84657807 122.05041024 -88.83886719 116.47460938 C-88.83390228 115.61547943 -88.82893738 114.75634949 -88.82382202 113.8711853 C-88.80921918 111.02869868 -88.80239932 108.18626798 -88.796875 105.34375 C-88.79111929 103.36039225 -88.78536161 101.3770345 -88.77960205 99.39367676 C-88.76909552 95.23087302 -88.76325147 91.06808856 -88.75976562 86.90527344 C-88.75430046 81.59738781 -88.73031342 76.28976124 -88.70179367 70.98195648 C-88.68306839 66.88101486 -88.67795632 62.78013419 -88.67642975 58.67915344 C-88.67342184 56.72413222 -88.66545701 54.76911158 -88.65224457 52.81413269 C-87.96951177 35.41151951 -87.96951177 35.41151951 -94.4375 19.875 C-96.58839329 18.30117564 -98.53627102 17.00374144 -101 16 C-100.72631836 14.09545898 -100.72631836 14.09545898 -100 12 C-97.15397892 10.79957471 -94.51794615 9.89487011 -91.5625 9.0625 C-90.28826172 8.68291138 -90.28826172 8.68291138 -88.98828125 8.2956543 C-86.3307993 7.51064553 -83.66698343 6.75203729 -81 6 C-80.17999512 5.76603516 -79.35999023 5.53207031 -78.51513672 5.29101562 C-74.00374537 4.00651587 -69.48321934 2.76012617 -64.95507812 1.53613281 C-63.17880655 1.04903337 -61.4092597 0.53757549 -59.640625 0.0234375 C-54.97113839 -1.32692755 -50.92036283 -2.39894834 -46 -2 C-45.29651492 2.39678177 -45 6.55576817 -45 11 C-44.67 11.66 -44.34 12.32 -44 13 C-43.34 13 -42.68 13 -42 13 C-41.34 11.68 -40.68 10.36 -40 9 C-39.34 9 -38.68 9 -38 9 C-37.76539063 8.41476563 -37.53078125 7.82953125 -37.2890625 7.2265625 C-34.30044592 2.06440658 -27.71055004 -1.79272193 -22.0625 -3.5 C-14.72341883 -4.851936 -6.35211162 -3.90899177 0 0 Z M-170 67 C-178.52527963 73.18728628 -183.00216561 79.56725499 -185 90 C-186.03023322 99.51417567 -185.8736307 109.52207649 -181 118 C-177.31350373 121.68649627 -174.4621694 123.17725637 -169.3125 123.4375 C-164.43633572 123.38104658 -161.97372126 122.18822871 -158.375 118.99609375 C-154.26686779 113.03229955 -154.73251466 105.97054341 -154.8046875 99.03515625 C-154.8075174 98.00184677 -154.81034729 96.96853729 -154.81326294 95.90391541 C-154.82440353 92.62332278 -154.84949696 89.34300927 -154.875 86.0625 C-154.8850377 83.83008208 -154.89416217 81.59765986 -154.90234375 79.36523438 C-154.92432279 73.910062 -154.95773916 68.45505095 -155 63 C-160.77471139 61.29517254 -164.96422032 64.12143945 -170 67 Z " fill="#FEFEFE" transform="translate(647,102)"/>
<path d="M0 0 C1.32 0 2.64 0 4 0 C4.00238835 1.0009136 4.00477671 2.0018272 4.00723743 3.03307152 C4.06607177 27.40463612 4.141979 51.77610218 4.23571491 76.14755821 C4.28065128 87.93348674 4.32007099 99.71938519 4.34643555 111.50537109 C4.36943304 121.77985633 4.40285077 132.05424624 4.44870156 142.32865584 C4.47261002 147.76721773 4.49135442 153.20568534 4.49761391 158.64429855 C4.50367544 163.76772264 4.52371413 168.89090557 4.55427551 174.01424026 C4.56303858 175.89026462 4.56678192 177.76632052 4.56500816 179.6423645 C4.1622963 195.18042404 4.1622963 195.18042404 10.3125 209 C13.1564582 211.11643401 15.57989448 212.12508929 19 213 C18.91552734 214.85205078 18.91552734 214.85205078 18 217 C15.15869141 218.27685547 15.15869141 218.27685547 11.3515625 219.3671875 C10.67118927 219.56753601 9.99081604 219.76788452 9.28982544 219.9743042 C7.07246697 220.62367863 4.84916793 221.24938946 2.625 221.875 C1.10919839 222.31386182 -0.40610246 222.75445692 -1.92089844 223.19677734 C-4.17934072 223.85583916 -6.43808298 224.5135431 -8.69885254 225.1645813 C-15.34305918 227.07957751 -21.92420544 229.16979626 -28.47802734 231.37451172 C-32.2963867 232.61984771 -34.87705874 233 -39 233 C-39.33 228.71 -39.66 224.42 -40 220 C-40.94875 220.886875 -41.8975 221.77375 -42.875 222.6875 C-51.96509355 230.3623694 -62.33325549 233.51103548 -74.24609375 232.80859375 C-86.77539451 231.03693466 -96.96776804 225.39323267 -105.04296875 215.49609375 C-121.13295175 191.66302842 -122.15531849 159.79414515 -117.34375 132.2421875 C-114.32186649 120.18263385 -109.0862838 108.54584125 -101 99 C-100.33097656 98.10474609 -100.33097656 98.10474609 -99.6484375 97.19140625 C-93.75077303 89.64746121 -85.29652621 85.06532135 -75.90625 83.4765625 C-64.60653027 82.09799669 -53.25399692 81.49731631 -43 87 C-41.515 87.495 -41.515 87.495 -40 88 C-39.9751034 82.89542996 -39.95704765 77.79089603 -39.94506836 72.6862793 C-39.94006925 70.95320011 -39.93326776 69.22012507 -39.92456055 67.48706055 C-39.91229973 64.98224862 -39.90672734 62.47749292 -39.90234375 59.97265625 C-39.89718246 59.20977798 -39.89202118 58.44689972 -39.88670349 57.66090393 C-39.76611908 46.75679055 -39.76611908 46.75679055 -44 37 C-44 36.34 -44 35.68 -44 35 C-46.97 34.01 -49.94 33.02 -53 32 C-53 30.68 -53 29.36 -53 28 C-49.23270559 26.89639844 -45.46591823 25.85361492 -41.65234375 24.921875 C-27.2396336 21.37385008 -13.01834877 17.80944845 -3 6 C-1.9386233 4.03188427 -0.92198246 2.0371422 0 0 Z M-65 107.29296875 C-70.58509076 114.85247636 -72.74563502 123.84191781 -74 133 C-74.18433594 134.0725 -74.36867188 135.145 -74.55859375 136.25 C-77.85592725 156.98909068 -78.86020736 184.5207097 -66.0625 202.4375 C-62.46385138 206.8169028 -59.78999249 209.5669373 -54.125 210.9375 C-49.76953268 211.26621451 -46.78038247 210.25368955 -43 208 C-38.76590823 203.01328134 -38.42145969 199.21236995 -38.48242188 192.96875 C-38.4754126 192.08018311 -38.46840332 191.19161621 -38.46118164 190.27612305 C-38.44363302 187.3504271 -38.45521331 184.42570511 -38.46875 181.5 C-38.46605419 179.46028458 -38.46217102 177.42057041 -38.45715332 175.38085938 C-38.45126251 171.11055235 -38.45980793 166.8405805 -38.47851562 162.5703125 C-38.50130474 157.10255249 -38.48817945 151.63557789 -38.46422577 146.16784668 C-38.44975663 141.95729681 -38.45437895 137.74693248 -38.46473694 133.53637695 C-38.46740113 131.52058824 -38.46414531 129.50478257 -38.45481873 127.48901367 C-38.44463489 124.66930663 -38.46017994 121.85086318 -38.48242188 119.03125 C-38.47432495 118.20197998 -38.46622803 117.37270996 -38.45788574 116.51831055 C-38.53525572 111.2112829 -39.52883248 108.23841419 -43 104 C-45.90645964 101.23944696 -47.88624618 100.56871301 -51.875 100.5625 C-57.81902713 100.75480676 -61.09927651 102.82085022 -65 107.29296875 Z " fill="#FEFEFE" transform="translate(776,16)"/>
<path d="M0 0 C0.74775696 -0.00249756 1.49551392 -0.00499512 2.26593018 -0.00756836 C10.84845284 -0.03153452 19.33216414 0.23903143 27.875 1.125 C27.32728673 6.13927638 25.63122491 10.08961928 23.3125 14.5 C22.58181705 15.9243693 21.85135442 17.34885165 21.12109375 18.7734375 C20.56010986 19.8577002 20.56010986 19.8577002 19.98779297 20.96386719 C18.25187186 24.33516462 16.56509708 27.73057167 14.875 31.125 C14.20325467 32.46621079 13.53137953 33.80735657 12.859375 35.1484375 C11.56711337 37.73170124 10.2863829 40.32015816 9.015625 42.9140625 C4.63167573 51.82801662 -0.05173709 60.55226857 -4.83398438 69.25878906 C-8.42526401 75.80772767 -11.85345346 82.41019591 -15.125 89.125 C-16.41057342 91.73221077 -17.70369109 94.3356118 -19 96.9375 C-19.33733154 97.61458008 -19.67466309 98.29166016 -20.0222168 98.98925781 C-22.65292131 104.24192488 -25.39655542 109.42747086 -28.18383789 114.59838867 C-31.10719237 120.03985872 -33.86118187 125.55645853 -36.58203125 131.1015625 C-37.98912209 133.8587481 -39.51909976 136.48080941 -41.125 139.125 C-40.20750977 139.16093262 -39.29001953 139.19686523 -38.34472656 139.23388672 C-29.22922694 139.70000701 -20.75733701 141.04209287 -11.875 143.25 C-10.59230225 143.5591333 -9.30960449 143.8682666 -7.98803711 144.18676758 C7.47592314 147.92700609 22.86058826 151.9829606 38.23046875 156.08984375 C77.12220173 166.45749763 115.34593661 175.20938966 155.875 174.125 C156.67212402 174.10566406 157.46924805 174.08632813 158.29052734 174.06640625 C192.0535509 173.12334377 230.29658402 166.17727732 258.875 147.125 C259.865 147.125 260.855 147.125 261.875 147.125 C261.0970283 153.86742143 254.40249605 158.60166697 249.64453125 162.8046875 C247.875 164.125 247.875 164.125 245.875 164.125 C245.545 165.115 245.215 166.105 244.875 167.125 C199.49626694 200.12131908 133.05460641 203.54998563 79.4609375 195.25390625 C71.16619545 193.86675897 63.01601611 192.22905585 54.875 190.125 C53.83859375 189.86283691 52.8021875 189.60067383 51.734375 189.33056641 C36.02096318 185.35555315 20.3823089 181.20919145 4.92578125 176.3203125 C-29.74030434 165.35756193 -61.61056062 158.56496259 -98.125 159.125 C-97.06745728 154.3361019 -94.91872706 150.1550625 -92.8125 145.75 C-92.15241943 144.36518433 -92.15241943 144.36518433 -91.47900391 142.95239258 C-87.72400479 135.17399263 -83.64621332 127.59853688 -79.46777344 120.04125977 C-76.39244971 114.47360496 -73.40252434 108.87903855 -70.5625 103.1875 C-70.25231934 102.56770264 -69.94213867 101.94790527 -69.62255859 101.30932617 C-67.64337935 97.30300428 -65.85519375 93.24275596 -64.125 89.125 C-63.465 89.125 -62.805 89.125 -62.125 89.125 C-62.04378906 88.46242188 -61.96257812 87.79984375 -61.87890625 87.1171875 C-60.87307366 83.12512655 -59.03396593 79.84464227 -57.0625 76.25 C-56.66272949 75.50766113 -56.26295898 74.76532227 -55.85107422 74.00048828 C-54.61461481 71.70560011 -53.37018871 69.41516095 -52.125 67.125 C-51.00686205 65.05741074 -49.89125 62.98853351 -48.77954102 60.91748047 C-47.80742946 59.10696016 -46.82967129 57.29947493 -45.8515625 55.4921875 C-44.09600153 52.16693558 -44.09600153 52.16693558 -42.703125 48.78515625 C-40.76726323 44.29529864 -38.5351929 40.00740669 -36.25 35.6875 C-35.82847656 34.87990234 -35.40695312 34.07230469 -34.97265625 33.24023438 C-32.23926204 28.05347257 -29.30692322 23.04924301 -26.125 18.125 C-29.75054335 18.23651334 -33.37519617 18.36673515 -37 18.5 C-38.51980469 18.54640625 -38.51980469 18.54640625 -40.0703125 18.59375 C-49.15879712 18.9433071 -59.60186932 19.39309091 -67.125 25.125 C-70.26468168 28.76521065 -72.47675912 32.85338682 -74.65234375 37.12109375 C-75.15894531 38.11238281 -75.66554688 39.10367188 -76.1875 40.125 C-76.63222656 41.053125 -77.07695312 41.98125 -77.53515625 42.9375 C-79.125 45.125 -79.125 45.125 -81.74609375 46 C-82.92365234 46.061875 -82.92365234 46.061875 -84.125 46.125 C-85.125 45.125 -85.125 45.125 -85.20729065 43.33433533 C-85.17731239 42.16518333 -85.17731239 42.16518333 -85.14672852 40.97241211 C-85.12663223 40.09157455 -85.10653595 39.210737 -85.08583069 38.3032074 C-85.05879562 37.34592239 -85.03176056 36.38863739 -85.00390625 35.40234375 C-84.98029526 34.42713272 -84.95668427 33.45192169 -84.93235779 32.44715881 C-84.85551362 29.31879866 -84.77157909 26.19067328 -84.6875 23.0625 C-84.63430007 20.94727728 -84.58155956 18.83204296 -84.52929688 16.71679688 C-84.39987061 11.51938459 -84.26461577 6.322148 -84.125 1.125 C-23.44398863 0.02698871 -23.44398863 0.02698871 0 0 Z " fill="#FEFEFE" transform="translate(408.125,100.875)"/>
<path d="M0 0 C0.66 0.33 1.32 0.66 2 1 C2.41064453 3.86743164 2.41064453 3.86743164 2.6328125 7.66015625 C2.67437469 8.32462265 2.71593689 8.98908905 2.75875854 9.6736908 C2.88985319 11.80286112 3.00756083 13.932537 3.125 16.0625 C3.21136116 17.50330813 3.29858945 18.94406457 3.38671875 20.38476562 C3.60122308 23.92263171 3.80372589 27.4610705 4 31 C6.55493457 27.72523501 8.13332913 24.61442486 9.6875 20.75 C10.12449219 19.67234375 10.56148438 18.5946875 11.01171875 17.484375 C11.33785156 16.66453125 11.66398437 15.8446875 12 15 C12.33 15 12.66 15 13 15 C12.855625 16.27875 12.71125 17.5575 12.5625 18.875 C12.00185355 23.91280884 11.49498469 28.95536879 11 34 C15.95532767 30.13242719 19.96476648 25.81123996 24 21 C24.495 22.485 24.495 22.485 25 24 C23.56640625 26.69921875 23.56640625 26.69921875 21.5625 29.6875 C20.90378906 30.68136719 20.24507813 31.67523438 19.56640625 32.69921875 C19.04949219 33.45847656 18.53257812 34.21773437 18 35 C19.485 35.495 19.485 35.495 21 36 C22.71275535 34.72641268 24.37667033 33.38576923 26 32 C26.60457031 31.69964844 27.20914063 31.39929688 27.83203125 31.08984375 C30.49568348 29.75081857 32.82064454 28.10112099 35.25 26.375 C36.58804688 25.42753906 36.58804688 25.42753906 37.953125 24.4609375 C38.62859375 23.97882812 39.3040625 23.49671875 40 23 C40 26 40 26 37.62109375 28.48828125 C36.56752619 29.43821922 35.50582914 30.37919426 34.4375 31.3125 C33.8911792 31.80161865 33.3448584 32.2907373 32.78198242 32.79467773 C29.8294096 35.42817163 26.8342011 38.00859363 23.8125 40.5625 C20.99577557 42.68926968 20.99577557 42.68926968 20 45 C21.03640625 44.69964844 22.0728125 44.39929687 23.140625 44.08984375 C24.51027284 43.70521662 25.88007263 43.32113031 27.25 42.9375 C27.93191406 42.73833984 28.61382812 42.53917969 29.31640625 42.33398438 C35.58342161 40.59990731 35.58342161 40.59990731 39 42 C27.85714286 50 27.85714286 50 22 50 C22 50.66 22 51.32 22 52 C22.99 51.67 23.98 51.34 25 51 C25.66 51.33 26.32 51.66 27 52 C28.73732806 52.22074841 30.48118407 52.39130638 32.2265625 52.53515625 C33.2578125 52.62216797 34.2890625 52.70917969 35.3515625 52.79882812 C36.43179688 52.88583984 37.51203125 52.97285156 38.625 53.0625 C39.71296875 53.15337891 40.8009375 53.24425781 41.921875 53.33789062 C44.61430157 53.56225951 47.30698709 53.78280114 50 54 C49.505 54.99 49.505 54.99 49 56 C46.71508789 56.39477539 46.71508789 56.39477539 43.72265625 56.59765625 C42.11680664 56.71657227 42.11680664 56.71657227 40.47851562 56.83789062 C39.35123047 56.91201172 38.22394531 56.98613281 37.0625 57.0625 C34.84479937 57.21645397 32.62733309 57.3738343 30.41015625 57.53515625 C29.42152588 57.600979 28.43289551 57.66680176 27.41430664 57.73461914 C24.99162454 57.85968389 24.99162454 57.85968389 23 59 C27.95 61.31 32.9 63.62 38 66 C38 66.66 38 67.32 38 68 C32.24237834 66.91103333 26.60752181 65.70663707 21 64 C20.67271868 67.16108063 20.67271868 67.16108063 23.1171875 69.4453125 C24.02726562 70.32960938 24.93734375 71.21390625 25.875 72.125 C27.23238281 73.45917969 27.23238281 73.45917969 28.6171875 74.8203125 C30.79357684 77.01083872 30.79357684 77.01083872 33 78 C32.505 79.485 32.505 79.485 32 81 C31.02417969 80.26652344 30.04835938 79.53304687 29.04296875 78.77734375 C27.75821187 77.83018721 26.4730336 76.88360207 25.1875 75.9375 C24.54490234 75.45216797 23.90230469 74.96683594 23.24023438 74.46679688 C21.54907099 73.23128373 19.77779254 72.10723982 18 71 C16.515 71.495 16.515 71.495 15 72 C15.51691406 72.83144531 16.03382813 73.66289063 16.56640625 74.51953125 C17.22511719 75.60621094 17.88382812 76.69289063 18.5625 77.8125 C19.22378906 78.89144531 19.88507813 79.97039062 20.56640625 81.08203125 C22 84 22 84 21 87 C18.7892651 92.21506694 16.10178678 96.38286503 12.26953125 100.5546875 C10.89743896 101.99323059 10.89743896 101.99323059 10 104 C9.34 104 8.68 104 8 104 C5.90665013 110.54171834 7.01398097 115.90307707 9.7734375 122.03515625 C10.05724274 122.67690292 10.34104797 123.3186496 10.63345337 123.97984314 C11.5352769 126.01302026 12.45431118 128.03780578 13.375 130.0625 C14.28492639 132.09220576 15.19116397 134.12349866 16.09512329 136.15586853 C16.91685777 137.9987973 17.74796257 139.83753958 18.57958984 141.67602539 C21.39321317 148.26032956 23.35551974 153.93344078 21 161 C19.1875 162.4296875 19.1875 162.4296875 17 163.875 C13.74131587 166.18389962 13.74131587 166.18389962 11.9375 169.6875 C11.89231534 172.16108202 11.89231534 172.16108202 13 175 C13.4015148 178.06298432 13.49485545 180.94480547 13 184 C10.625 186.875 10.625 186.875 8 189 C5.73353649 191.75556583 5.73353649 191.75556583 6.125 194.5625 C6.8899181 197.5675354 7.86722492 199.99997517 9.125 202.8125 C11.19232059 207.81165705 11.54053797 211.79722505 10 217 C9.48566406 217.91523438 8.97132813 218.83046875 8.44140625 219.7734375 C6.72343422 223.61908762 6.77857472 226.7728054 7 230.875 C7.18346335 236.94596916 6.73594977 241.52810045 4 247 C2.68 246.67 1.36 246.34 0 246 C-0.69885501 241.67116993 -1.36105859 237.33807588 -2 233 C-2.21076172 231.60974609 -2.21076172 231.60974609 -2.42578125 230.19140625 C-2.95335611 226.11700282 -3.14148076 222.84704453 -2 218.875 C-0.81597024 214.72675586 -0.59555232 211.11923057 -2 207 C-3.70297099 203.99739326 -5.53946527 201.15827753 -7.50390625 198.3203125 C-9 196 -9 196 -9 194 C-9.66 194 -10.32 194 -11 194 C-12.93752147 186.6374184 -11.0857457 182.01997915 -7.45288086 175.58178711 C-4.78578973 170.6068781 -4.69632828 167.52314494 -6 162 C-8.41666771 159.24958334 -8.41666771 159.24958334 -11 157 C-12.21833955 154.40087563 -12.15459196 153.45514383 -11.23046875 150.734375 C-9.8642461 147.69832467 -8.17466702 145.04948203 -6.375 142.25 C-2.86674682 136.22718623 -2.86674682 136.22718623 -2.31640625 129.46484375 C-5.29613237 118.72080271 -12.40485498 108.23059583 -18.328125 98.91015625 C-20.71410834 95.0707394 -21.31374193 92.4969676 -21 88 C-21.495 87.01 -21.495 87.01 -22 86 C-21.0520411 83.97481509 -20.04808041 81.97522846 -19 80 C-18.505 78.515 -18.505 78.515 -18 77 C-17.34 77 -16.68 77 -16 77 C-15.34 75.02 -14.68 73.04 -14 71 C-18.26029191 71.57999024 -21.35161535 74.12387893 -24.75 76.5625 C-25.35199219 76.98724609 -25.95398438 77.41199219 -26.57421875 77.84960938 C-28.05329714 78.89435522 -29.52717259 79.94646016 -31 81 C-31 78 -31 78 -29.03125 75.87890625 C-27.34504638 74.33582177 -25.65754718 72.79415183 -23.96875 71.25390625 C-21.56142833 68.99668328 -21.56142833 68.99668328 -22 65 C-26.95 65.99 -31.9 66.98 -37 68 C-37 67.34 -37 66.68 -37 66 C-32.38 63.69 -27.76 61.38 -23 59 C-24.70441073 57.29558927 -26.97801817 57.68976647 -29.3125 57.53515625 C-30.92511719 57.41817383 -30.92511719 57.41817383 -32.5703125 57.29882812 C-34.85650624 57.14129427 -37.14297113 56.98764711 -39.4296875 56.83789062 C-40.50476563 56.75861328 -41.57984375 56.67933594 -42.6875 56.59765625 C-43.68136719 56.53070557 -44.67523438 56.46375488 -45.69921875 56.39477539 C-46.45847656 56.26449951 -47.21773437 56.13422363 -48 56 C-48.33 55.34 -48.66 54.68 -49 54 C-45.88856433 52.96285478 -43.50531904 52.79968139 -40.23828125 52.68359375 C-39.12001953 52.64169922 -38.00175781 52.59980469 -36.84960938 52.55664062 C-35.68236328 52.51732422 -34.51511719 52.47800781 -33.3125 52.4375 C-32.13365234 52.39431641 -30.95480469 52.35113281 -29.74023438 52.30664062 C-26.82694117 52.20048824 -23.91356243 52.09843758 -21 52 C-21 51.34 -21 50.68 -21 50 C-21.825 49.7525 -22.65 49.505 -23.5 49.25 C-27.52373471 47.81295189 -31.21979024 45.97645485 -35 44 C-35 43.01 -35 42.02 -35 41 C-29.72 42.32 -24.44 43.64 -19 45 C-22.82143746 40.17770987 -25.4536462 37.71417314 -31 35 C-32.82307452 33.10482649 -34.36959387 31.07105644 -36 29 C-36.99 28.34 -37.98 27.68 -39 27 C-40.1875 24.875 -40.1875 24.875 -41 23 C-37.70265159 23.38046328 -36.57793955 24.35315262 -33.9375 26.5625 C-31.2514038 29.31928623 -31.2514038 29.31928623 -28 29 C-27.67 29.66 -27.34 30.32 -27 31 C-23.26179379 34.40836448 -19.64566076 36.17817225 -15 38 C-16.42577999 34.94475717 -17.76387381 32.92709464 -20.5 30.875 C-22.86757679 27.91552901 -23.21533052 24.68191066 -24 21 C-20.54351297 22.15216234 -20.07161473 22.96524764 -18.0625 25.875 C-16.42740951 28.23825079 -15.12423609 29.90743194 -12.80859375 31.6328125 C-12.21175781 32.08398438 -11.61492187 32.53515625 -11 33 C-11 33.66 -11 34.32 -11 35 C-10.34 35 -9.68 35 -9 35 C-9.495 31.535 -9.495 31.535 -10 28 C-10.99 28.33 -11.98 28.66 -13 29 C-13.33 27.35 -13.66 25.7 -14 24 C-13.34 23.67 -12.68 23.34 -12 23 C-12 20.36 -12 17.72 -12 15 C-9.52813545 17.96346786 -8.33751639 20.54041689 -7.3125 24.25 C-7.06113281 25.14203125 -6.80976563 26.0340625 -6.55078125 26.953125 C-6.36902344 27.62859375 -6.18726563 28.3040625 -6 29 C-5.34 29 -4.68 29 -4 29 C-4 29.99 -4 30.98 -4 32 C-3.34 32 -2.68 32 -2 32 C-1.96241577 30.86570557 -1.96241577 30.86570557 -1.92407227 29.70849609 C-1.80763114 26.26384541 -1.68512338 22.81943592 -1.5625 19.375 C-1.52318359 18.18519531 -1.48386719 16.99539062 -1.44335938 15.76953125 C-1.38051758 14.03896484 -1.38051758 14.03896484 -1.31640625 12.2734375 C-1.27974854 11.21560059 -1.24309082 10.15776367 -1.20532227 9.06787109 C-0.99937941 5.99072727 -0.55819179 3.0313191 0 0 Z M15 37 C15.33 37.66 15.66 38.32 16 39 C16.66 38.67 17.32 38.34 18 38 C17.01 37.67 16.02 37.34 15 37 Z M-10 43 C-12.30671915 45.71549154 -12.30671915 45.71549154 -11.625 48.1875 C-11.41875 48.785625 -11.2125 49.38375 -11 50 C-7.36440339 46.56638098 -4.63886654 43.2026393 -2 39 C-5.33194465 39 -7.37996298 41.08955634 -10 43 Z M0 39 C-0.67057887 40.7902061 -1.3363469 42.58221489 -2 44.375 C-2.37125 45.37273437 -2.7425 46.37046875 -3.125 47.3984375 C-4.10626277 49.85848061 -4.10626277 49.85848061 -4 52 C-3.01 52.495 -3.01 52.495 -2 53 C-2 54.65 -2 56.3 -2 58 C-2.66 58 -3.32 58 -4 58 C-3.34 61.3 -2.68 64.6 -2 68 C-0.02 68 1.96 68 4 68 C4.7282448 63.00632136 5.38487182 58.00890086 6 53 C5.34 53 4.68 53 4 53 C4.33 52.01 4.66 51.02 5 50 C4.19027984 47.59915538 4.19027984 47.59915538 3 45 C2.32204472 43.00379834 1.65266469 41.00461299 1 39 C0.67 39 0.34 39 0 39 Z M3 39 C3.763125 39.886875 4.52625 40.77375 5.3125 41.6875 C7.50927111 44.31488818 9.32560685 47.00371753 11 50 C11.99 49.67 12.98 49.34 14 49 C12.43903239 45.16853404 10.08588695 42.71851946 7 40 C4.82653432 39.13880866 4.82653432 39.13880866 3 39 Z M-14 55 C-13.46939601 59.51013391 -11.69113883 62.38378219 -9 66 C-8.67 66 -8.34 66 -8 66 C-7.49734308 63.21160696 -7.49734308 63.21160696 -8 60 C-9.823983 57.93601924 -11.72763839 56.60958947 -14 55 Z M14 55 C15 58 15 58 15 58 Z M11 57 C9.31369881 60.51033129 9.31369881 60.51033129 9.375 64.3125 C9.58125 64.869375 9.7875 65.42625 10 66 C12.12821884 63.18288354 12.12821884 63.18288354 14 60 C13.67 59.01 13.34 58.02 13 57 C12.34 57 11.68 57 11 57 Z M-20 64 C-19.34 64.66 -18.68 65.32 -18 66 C-18 65.34 -18 64.68 -18 64 C-18.66 64 -19.32 64 -20 64 Z " fill="#FDFDFD" transform="translate(289,19)"/>
<path d="M0 0 C0.99 0 1.98 0 3 0 C3.33 0.886875 3.66 1.77375 4 2.6875 C6.58170454 6.96344815 9.67924333 8.68054393 14 11 C13 13 13 13 10.25 14.125 C5.96343967 16.59801557 4.29590955 19.72310654 2 24 C-0.07640542 22.03504007 -1.34897399 20.43000915 -2.875 17.9375 C-5.12742852 14.82384881 -6.36974108 14.00840526 -10 13 C-10 12.01 -10 11.02 -10 10 C-5.77777778 7 -5.77777778 7 -3 7 C-1.79371992 4.66785852 -0.8345262 2.50357861 0 0 Z " fill="#848484" transform="translate(769,274)"/>
<path d="M0 0 C6.16365349 0.07865451 12.14885488 0.27465187 18.2421875 1.23046875 C17.9121875 1.89046875 17.5821875 2.55046875 17.2421875 3.23046875 C11.31519292 4.4770192 4.27074633 4.95784088 -1.7578125 4.23046875 C-2.7478125 3.57046875 -3.7378125 2.91046875 -4.7578125 2.23046875 C-2.7578125 0.23046875 -2.7578125 0.23046875 0 0 Z " fill="#F0F1F1" transform="translate(320.7578125,71.76953125)"/>
<path d="M0 0 C0.99 0 1.98 0 3 0 C3.33 0.886875 3.66 1.77375 4 2.6875 C6.58170454 6.96344815 9.67924333 8.68054393 14 11 C13.67 11.66 13.34 12.32 13 13 C9.71245489 12.42110619 8.06327505 11.45171589 5.75 9.0625 C5.22921875 8.53785156 4.7084375 8.01320313 4.171875 7.47265625 C3 6 3 6 3 4 C1.35 4.33 -0.3 4.66 -2 5 C-1.34 3.35 -0.68 1.7 0 0 Z " fill="#919291" transform="translate(769,274)"/>
<path d="M0 0 C-4.38512875 3.31558515 -7.37458159 4.54996653 -13 5 C-12.4375 3.125 -12.4375 3.125 -11 1 C-7.08675304 -0.52181826 -4.01582932 -1.60633173 0 0 Z " fill="#F5F7F5" transform="translate(328,61)"/>
<path d="M0 0 C-0.0625 1.75 -0.0625 1.75 -1 4 C-3.24164322 5.59501537 -5.53566643 6.74543018 -8 8 C-6.48291727 4.46014029 -4.24676932 0 0 0 Z " fill="#F6F6F6" transform="translate(265,92)"/>
<path d="M0 0 C3.25543229 0.34879632 4.01873107 1.02133261 6.25 3.5625 C6.8275 4.366875 7.405 5.17125 8 6 C5.125 5.8125 5.125 5.8125 2 5 C0.625 2.4375 0.625 2.4375 0 0 Z " fill="#F4F7F6" transform="translate(248,42)"/>
<path d="M0 0 C-1.97420135 2.52259061 -2.96745642 2.9929808 -6.1875 3.6875 C-7.5796875 3.8421875 -7.5796875 3.8421875 -9 4 C-9 3.34 -9 2.68 -9 2 C-5.86501708 0.14223235 -3.62528568 -0.20140476 0 0 Z " fill="#F5F5F5" transform="translate(261,83)"/>
<path d="M0 0 C0.33 0.99 0.66 1.98 1 3 C-0.3125 5.1875 -0.3125 5.1875 -2 7 C-2.66 7 -3.32 7 -4 7 C-3.43628586 3.73045798 -2.50037734 2.17424117 0 0 Z " fill="#F5F8F8" transform="translate(313,40)"/>
<path d="M0 0 C0.33 0.99 0.66 1.98 1 3 C0.67 3.66 0.34 4.32 0 5 C-0.99 5 -1.98 5 -3 5 C-1.125 1.125 -1.125 1.125 0 0 Z " fill="#FFFFFF" transform="translate(314,44)"/>
<path d="M0 0 C0.33 1.32 0.66 2.64 1 4 C0.01 3.67 -0.98 3.34 -2 3 C-1.34 3 -0.68 3 0 3 C0 2.01 0 1.02 0 0 Z " fill="#FFFFFF" transform="translate(265,96)"/>
<path d="M0 0 C0.99 0.33 1.98 0.66 3 1 C2.67 1.66 2.34 2.32 2 3 C1.34 2.01 0.68 1.02 0 0 Z " fill="#FFFFFF" transform="translate(309,84)"/>
<path d="M0 0 C0.66 0.33 1.32 0.66 2 1 C1.01 1 0.02 1 -1 1 C-0.67 0.67 -0.34 0.34 0 0 Z " fill="#FFFFFF" transform="translate(320,79)"/>
<path d="M0 0 C0.66 0 1.32 0 2 0 C1.67 0.66 1.34 1.32 1 2 C0.67 1.34 0.34 0.68 0 0 Z " fill="#FFFFFF" transform="translate(321,77)"/>
<path d="M0 0 C0.66 0 1.32 0 2 0 C1.67 0.66 1.34 1.32 1 2 C0.67 1.34 0.34 0.68 0 0 Z " fill="#FFFFFF" transform="translate(293,45)"/>
<path d="" fill="#FFFFFF" transform="translate(0,0)"/>
<path d="" fill="#FFFFFF" transform="translate(0,0)"/>
<path d="M0 0 C2 1 2 1 2 1 Z " fill="#FFFFFF" transform="translate(309,53)"/>
<path d="" fill="#FFFFFF" transform="translate(0,0)"/>
<path d="" fill="#FFFFFF" transform="translate(0,0)"/>
<path d="" fill="#FFFFFF" transform="translate(0,0)"/>
<path d="" fill="#FFFFFF" transform="translate(0,0)"/>
<path d="" fill="#FFFFFF" transform="translate(0,0)"/>
<path d="" fill="#FFFFFF" transform="translate(0,0)"/>
<path d="" fill="#FFFFFF" transform="translate(0,0)"/>
<path d="" fill="#FFFFFF" transform="translate(0,0)"/>
<path d="" fill="#FFFFFF" transform="translate(0,0)"/>
<path d="" fill="#FFFFFF" transform="translate(0,0)"/>
<path d="" fill="#FFFFFF" transform="translate(0,0)"/>
<path d="" fill="#FFFFFF" transform="translate(0,0)"/>
<path d="" fill="#FFFFFF" transform="translate(0,0)"/>
<path d="" fill="#FFFFFF" transform="translate(0,0)"/>
<path d="" fill="#FFFFFF" transform="translate(0,0)"/>
<path d="" fill="#FFFFFF" transform="translate(0,0)"/>
<path d="" fill="#FFFFFF" transform="translate(0,0)"/>
<path d="" fill="#FFFFFF" transform="translate(0,0)"/>
<path d="" fill="#FFFFFF" transform="translate(0,0)"/>
<path d="" fill="#FFFFFF" transform="translate(0,0)"/>
<path d="" fill="#FFFFFF" transform="translate(0,0)"/>
<path d="" fill="#FFFFFF" transform="translate(0,0)"/>
<path d="" fill="#FFFFFF" transform="translate(0,0)"/>
<path d="" fill="#FFFFFF" transform="translate(0,0)"/>
</svg>
